<svg xmlns="http://www.w3.org/2000/svg" xmlns:xlink="http://www.w3.org/1999/xlink" width="500" zoomAndPan="magnify" viewBox="0 0 375 374.999991" height="500" preserveAspectRatio="xMidYMid meet" version="1.0"><defs><clipPath id="9aa0dc21d7"><path d="M 58.761719 79.214844 L 121.832031 79.214844 L 121.832031 151.207031 L 58.761719 151.207031 Z M 58.761719 79.214844 " clip-rule="nonzero"/></clipPath><clipPath id="7d780863e7"><path d="M 151.441406 79.214844 L 214.507812 79.214844 L 214.507812 149.421875 L 151.441406 149.421875 Z M 151.441406 79.214844 " clip-rule="nonzero"/></clipPath><clipPath id="907e54b5a3"><path d="M 244.007812 77.175781 L 316 77.175781 L 316 149.167969 L 244.007812 149.167969 Z M 244.007812 77.175781 " clip-rule="nonzero"/></clipPath><clipPath id="e07b03c7fd"><path d="M 105.835938 171 L 166.523438 171 L 166.523438 226 L 105.835938 226 Z M 105.835938 171 " clip-rule="nonzero"/></clipPath><clipPath id="c7f766f4ae"><path d="M 214.261719 172.046875 L 269 172.046875 L 269 226.785156 L 214.261719 226.785156 Z M 214.261719 172.046875 " clip-rule="nonzero"/></clipPath><clipPath id="e4a6f1d0cc"><path d="M 157 254 L 251 254 L 251 289.847656 L 157 289.847656 Z M 157 254 " clip-rule="nonzero"/></clipPath><clipPath id="0c7672be30"><path d="M 195 233.917969 L 229 233.917969 L 229 289.847656 L 195 289.847656 Z M 195 233.917969 " clip-rule="nonzero"/></clipPath><clipPath id="b7982dba6e"><path d="M 157 254 L 191 254 L 191 289.847656 L 157 289.847656 Z M 157 254 " clip-rule="nonzero"/></clipPath><clipPath id="8e5c87067a"><path d="M 122 254 L 264 254 L 264 289.847656 L 122 289.847656 Z M 122 254 " clip-rule="nonzero"/></clipPath></defs><g clip-path="url(#9aa0dc21d7)"><path fill="#d80d68" d="M 64.558594 143.949219 L 58.820312 79.554688 L 121.902344 79.554688 L 116.15625 143.9375 L 90.324219 151.097656 Z M 64.558594 143.949219 " fill-opacity="1" fill-rule="nonzero"/></g><path fill="#f69ed6" d="M 90.359375 145.625 L 111.238281 139.839844 L 116.148438 84.820312 L 90.359375 84.820312 Z M 90.359375 145.625 " fill-opacity="1" fill-rule="nonzero"/><path fill="#eceff1" d="M 90.359375 108.703125 L 79.910156 108.703125 L 79.1875 100.613281 L 90.359375 100.613281 L 90.359375 92.71875 L 70.558594 92.71875 L 70.746094 94.835938 L 72.6875 116.597656 L 90.359375 116.597656 Z M 90.359375 129.210938 L 90.324219 129.222656 L 81.53125 126.84375 L 80.96875 120.546875 L 73.042969 120.546875 L 74.148438 132.949219 L 90.324219 137.4375 L 90.359375 137.429688 Z M 90.359375 129.210938 " fill-opacity="1" fill-rule="nonzero"/><path fill="#ffffff" d="M 90.335938 108.703125 L 90.335938 116.597656 L 100.058594 116.597656 L 99.140625 126.84375 L 90.332031 129.21875 L 90.332031 137.433594 L 106.523438 132.949219 L 106.640625 131.613281 L 108.496094 110.820312 L 108.691406 108.699219 L 106.5625 108.699219 Z M 90.335938 92.71875 L 90.335938 100.613281 L 109.410156 100.613281 L 109.566406 98.839844 L 109.929688 94.835938 L 110.117188 92.714844 Z M 90.335938 92.71875 " fill-opacity="1" fill-rule="nonzero"/><g clip-path="url(#7d780863e7)"><path fill="#d80d68" d="M 214.25 79.214844 L 151.449219 79.214844 L 156.988281 142.015625 L 182.847656 149.402344 L 208.707031 142.015625 Z M 214.25 79.214844 " fill-opacity="1" fill-rule="nonzero"/></g><path fill="#f75e8d" d="M 182.847656 84.753906 L 182.847656 143.675781 L 203.535156 137.765625 L 208.152344 84.753906 Z M 182.847656 84.753906 " fill-opacity="1" fill-rule="nonzero"/><path fill="#ffffff" d="M 199.65625 93.992188 L 182.847656 93.992188 L 182.847656 101.378906 L 191.898438 101.378906 L 191.34375 108.765625 L 182.847656 108.765625 L 182.847656 116.15625 L 190.976562 116.15625 L 190.421875 124.46875 L 182.847656 127.054688 L 182.847656 134.8125 L 197.441406 130.007812 L 198.734375 108.765625 Z M 199.65625 93.992188 " fill-opacity="1" fill-rule="nonzero"/><path fill="#eeeeee" d="M 182.847656 93.992188 L 182.847656 101.378906 L 166.410156 101.378906 L 165.855469 93.992188 Z M 174.351562 108.765625 L 174.722656 116.15625 L 182.847656 116.15625 L 182.847656 108.765625 Z M 175.089844 119.851562 L 167.703125 119.851562 L 168.257812 130.007812 L 182.847656 134.8125 L 182.847656 127.054688 L 175.273438 124.46875 Z M 175.089844 119.851562 " fill-opacity="1" fill-rule="nonzero"/><g clip-path="url(#907e54b5a3)"><path fill="#f69ed6" d="M 246.695312 77.007812 C 245.972656 77.007812 245.285156 77.316406 244.808594 77.859375 C 244.328125 78.402344 244.105469 79.121094 244.195312 79.839844 L 250.914062 133.589844 C 251.019531 134.425781 251.535156 135.152344 252.289062 135.527344 L 279.164062 148.964844 C 279.871094 149.320312 280.707031 149.320312 281.417969 148.964844 L 308.289062 135.527344 C 309.042969 135.152344 309.558594 134.425781 309.664062 133.589844 L 316.382812 79.839844 C 316.472656 79.121094 316.25 78.402344 315.773438 77.859375 C 315.292969 77.316406 314.605469 77.007812 313.882812 77.007812 Z M 246.695312 77.007812 " fill-opacity="1" fill-rule="nonzero"/></g><path fill="#ffffff" d="M 275.25 87.085938 C 276.640625 87.085938 277.769531 88.214844 277.769531 89.605469 L 277.769531 133.277344 C 277.769531 134.175781 277.292969 135.003906 276.515625 135.453125 C 275.738281 135.90625 274.78125 135.910156 274 135.464844 L 262.242188 128.746094 C 261.035156 128.054688 260.613281 126.515625 261.304688 125.308594 C 261.996094 124.097656 263.535156 123.679688 264.742188 124.371094 L 272.730469 128.933594 L 272.730469 89.605469 C 272.730469 88.214844 273.859375 87.085938 275.25 87.085938 Z M 275.25 87.085938 " fill-opacity="1" fill-rule="evenodd"/><path fill="#ffffff" d="M 282.808594 89.605469 C 282.808594 88.214844 283.9375 87.085938 285.328125 87.085938 L 302.125 87.085938 C 303.515625 87.085938 304.644531 88.214844 304.644531 89.605469 C 304.644531 90.996094 303.515625 92.125 302.125 92.125 L 287.847656 92.125 L 287.847656 108.300781 L 299.898438 105.621094 C 300.683594 105.445312 301.503906 105.65625 302.109375 106.1875 C 302.714844 106.71875 303.027344 107.507812 302.953125 108.308594 L 301.273438 126.785156 C 301.195312 127.65625 300.671875 128.421875 299.890625 128.8125 L 286.453125 135.527344 C 285.210938 136.152344 283.695312 135.648438 283.074219 134.402344 C 282.453125 133.15625 282.957031 131.644531 284.203125 131.023438 L 296.382812 124.929688 L 297.625 111.289062 L 285.875 113.898438 C 285.128906 114.066406 284.347656 113.882812 283.75 113.40625 C 283.15625 112.925781 282.808594 112.203125 282.808594 111.441406 Z M 282.808594 89.605469 " fill-opacity="1" fill-rule="evenodd"/><g clip-path="url(#e07b03c7fd)"><path fill="#d80d68" d="M 155.828125 189.230469 C 155.179688 189.007812 154.527344 188.800781 153.871094 188.613281 C 153.980469 188.160156 154.082031 187.714844 154.171875 187.277344 C 155.65625 180.085938 154.6875 174.292969 151.378906 172.382812 C 148.207031 170.554688 143.019531 172.460938 137.78125 177.023438 C 137.261719 177.472656 136.757812 177.933594 136.265625 178.410156 C 135.933594 178.09375 135.601562 177.785156 135.257812 177.480469 C 129.769531 172.605469 124.265625 170.550781 120.960938 172.464844 C 117.789062 174.296875 116.851562 179.746094 118.1875 186.5625 C 118.320312 187.234375 118.46875 187.90625 118.636719 188.574219 C 117.855469 188.796875 117.105469 189.03125 116.386719 189.28125 C 109.949219 191.527344 105.835938 195.042969 105.835938 198.691406 C 105.835938 202.460938 110.25 206.242188 116.953125 208.53125 C 117.5 208.71875 118.046875 208.886719 118.597656 209.046875 C 118.417969 209.765625 118.261719 210.488281 118.121094 211.214844 C 116.851562 217.914062 117.84375 223.230469 121.003906 225.054688 C 124.265625 226.9375 129.746094 225.003906 135.082031 220.339844 C 135.511719 219.960938 135.9375 219.570312 136.347656 219.171875 C 136.882812 219.683594 137.429688 220.183594 137.992188 220.667969 C 143.160156 225.117188 148.265625 226.910156 151.421875 225.082031 C 154.683594 223.195312 155.742188 217.484375 154.367188 210.53125 C 154.257812 209.988281 154.136719 209.445312 154.003906 208.90625 C 154.386719 208.792969 154.765625 208.675781 155.132812 208.554688 C 162.101562 206.246094 166.636719 202.511719 166.636719 198.691406 C 166.636719 195.03125 162.394531 191.492188 155.828125 189.230469 Z M 154.316406 206.089844 C 153.984375 206.199219 153.640625 206.304688 153.292969 206.40625 C 152.523438 203.972656 151.488281 201.382812 150.214844 198.707031 C 151.429688 196.09375 152.425781 193.535156 153.175781 191.117188 C 153.796875 191.296875 154.398438 191.484375 154.980469 191.683594 C 160.609375 193.621094 164.039062 196.484375 164.039062 198.691406 C 164.039062 201.042969 160.335938 204.09375 154.316406 206.089844 Z M 151.820312 211.035156 C 152.425781 214.109375 152.515625 216.890625 152.109375 219.0625 C 151.75 221.011719 151.019531 222.316406 150.121094 222.835938 C 148.203125 223.945312 144.105469 222.503906 139.6875 218.699219 C 139.164062 218.25 138.65625 217.785156 138.160156 217.304688 C 139.871094 215.433594 141.582031 213.253906 143.253906 210.835938 C 146.195312 210.574219 148.972656 210.148438 151.488281 209.566406 C 151.609375 210.054688 151.71875 210.542969 151.820312 211.035156 Z M 126.566406 222.644531 C 124.691406 223.304688 123.203125 223.324219 122.300781 222.804688 C 120.382812 221.699219 119.585938 217.429688 120.671875 211.699219 C 120.800781 211.023438 120.949219 210.351562 121.117188 209.683594 C 123.609375 210.234375 126.363281 210.628906 129.3125 210.867188 C 130.992188 213.234375 132.753906 215.410156 134.53125 217.316406 C 134.152344 217.683594 133.765625 218.039062 133.371094 218.382812 C 131.011719 220.445312 128.648438 221.910156 126.566406 222.644531 Z M 117.796875 206.074219 C 114.832031 205.0625 112.382812 203.742188 110.703125 202.308594 C 109.195312 201.015625 108.433594 199.734375 108.433594 198.691406 C 108.433594 196.480469 111.734375 193.65625 117.238281 191.734375 C 117.910156 191.503906 118.609375 191.28125 119.332031 191.078125 C 120.09375 193.550781 121.09375 196.140625 122.296875 198.757812 C 121.078125 201.410156 120.0625 204.039062 119.296875 206.542969 C 118.792969 206.398438 118.292969 206.242188 117.796875 206.074219 Z M 120.734375 186.0625 C 119.59375 180.222656 120.351562 175.816406 122.261719 174.710938 C 124.296875 173.535156 128.792969 175.214844 133.535156 179.421875 C 133.84375 179.699219 134.148438 179.980469 134.445312 180.265625 C 132.679688 182.160156 130.933594 184.320312 129.265625 186.675781 C 126.40625 186.941406 123.667969 187.367188 121.152344 187.9375 C 120.996094 187.316406 120.859375 186.691406 120.734375 186.0625 Z M 146.960938 192.539062 C 146.367188 191.511719 145.75 190.496094 145.113281 189.496094 C 147.054688 189.742188 148.910156 190.070312 150.65625 190.464844 C 150.132812 192.144531 149.480469 193.902344 148.710938 195.703125 C 148.148438 194.636719 147.566406 193.582031 146.960938 192.539062 Z M 136.265625 182.121094 C 137.464844 183.417969 138.664062 184.867188 139.84375 186.441406 C 137.449219 186.328125 135.050781 186.328125 132.660156 186.4375 C 133.839844 184.882812 135.050781 183.433594 136.265625 182.121094 Z M 125.503906 192.554688 C 124.90625 193.589844 124.332031 194.640625 123.785156 195.699219 C 123.03125 193.90625 122.382812 192.140625 121.855469 190.4375 C 123.589844 190.050781 125.4375 189.734375 127.367188 189.492188 C 126.722656 190.5 126.101562 191.519531 125.503906 192.554688 Z M 127.421875 208.078125 C 125.429688 207.855469 123.554688 207.554688 121.820312 207.175781 C 122.355469 205.441406 123.015625 203.640625 123.789062 201.808594 C 124.339844 202.871094 124.914062 203.921875 125.511719 204.957031 C 126.128906 206.019531 126.765625 207.0625 127.421875 208.078125 Z M 136.339844 215.449219 C 135.105469 214.121094 133.878906 212.648438 132.679688 211.070312 C 133.84375 211.113281 135.03125 211.136719 136.238281 211.136719 C 137.476562 211.136719 138.703125 211.109375 139.90625 211.058594 C 138.722656 212.664062 137.527344 214.136719 136.339844 215.449219 Z M 148.734375 201.714844 C 149.546875 203.566406 150.234375 205.359375 150.777344 207.0625 C 149.015625 207.464844 147.109375 207.789062 145.105469 208.03125 C 145.75 207.011719 146.371094 205.980469 146.972656 204.9375 C 147.582031 203.875 148.171875 202.800781 148.734375 201.714844 Z M 144.722656 203.640625 C 143.800781 205.238281 142.828125 206.808594 141.804688 208.347656 C 139.953125 208.476562 138.09375 208.542969 136.238281 208.542969 C 134.34375 208.542969 132.503906 208.480469 130.734375 208.367188 C 129.683594 206.835938 128.691406 205.261719 127.761719 203.652344 C 126.835938 202.054688 125.96875 200.421875 125.167969 198.753906 C 125.96875 197.089844 126.828125 195.453125 127.753906 193.851562 L 127.753906 193.855469 C 128.675781 192.253906 129.660156 190.6875 130.699219 189.160156 C 132.507812 189.023438 134.363281 188.953125 136.238281 188.953125 C 138.121094 188.953125 139.976562 189.023438 141.785156 189.160156 C 142.816406 190.6875 143.792969 192.246094 144.714844 193.839844 C 145.640625 195.4375 146.515625 197.0625 147.335938 198.71875 C 146.523438 200.390625 145.652344 202.03125 144.722656 203.640625 Z M 150.082031 174.632812 C 152.117188 175.808594 152.90625 180.542969 151.628906 186.753906 C 151.546875 187.148438 151.457031 187.554688 151.355469 187.960938 C 148.832031 187.378906 146.09375 186.945312 143.226562 186.679688 C 141.554688 184.300781 139.824219 182.136719 138.085938 180.261719 C 138.542969 179.824219 139.007812 179.398438 139.484375 178.980469 C 143.972656 175.074219 148.167969 173.53125 150.082031 174.632812 Z M 136.238281 193.261719 C 139.234375 193.261719 141.667969 195.695312 141.667969 198.691406 C 141.667969 201.691406 139.234375 204.121094 136.238281 204.121094 C 133.238281 204.121094 130.808594 201.691406 130.808594 198.691406 C 130.808594 195.695312 133.238281 193.261719 136.238281 193.261719 Z M 136.238281 193.261719 " fill-opacity="1" fill-rule="nonzero"/></g><g clip-path="url(#c7f766f4ae)"><path fill="#f69ed6" d="M 269.285156 219.429688 C 269.285156 223.652344 265.867188 227.074219 261.644531 227.074219 L 221.902344 227.074219 C 217.683594 227.074219 214.261719 223.652344 214.261719 219.429688 L 214.261719 179.691406 C 214.261719 175.46875 217.683594 172.046875 221.902344 172.046875 L 261.644531 172.046875 C 265.867188 172.046875 269.285156 175.46875 269.285156 179.691406 Z M 269.285156 219.429688 " fill-opacity="1" fill-rule="nonzero"/></g><path fill="#ffffff" d="M 255.574219 202.007812 C 254.582031 200.628906 253.144531 199.683594 251.296875 199.179688 C 251.296875 199.179688 252.855469 198.613281 254.261719 196.503906 C 255.101562 195.160156 255.53125 193.539062 255.53125 191.644531 C 255.53125 188.355469 254.335938 185.835938 251.953125 184.109375 C 249.570312 182.378906 246.878906 181.21875 242.308594 181.21875 L 228.015625 181.21875 L 228.015625 217.902344 L 243.957031 217.902344 C 248.285156 217.871094 251.539062 216.941406 253.757812 215.152344 C 255.957031 213.332031 257.058594 210.640625 257.058594 207.050781 C 257.058594 205.0625 256.570312 203.382812 255.574219 202.007812 Z M 237.1875 187.332031 C 237.1875 187.332031 243.5625 187.332031 243.683594 187.332031 C 246.007812 187.332031 247.886719 189.210938 247.886719 191.535156 C 247.886719 193.859375 246.007812 195.738281 243.683594 195.738281 C 243.5625 195.738281 237.1875 195.738281 237.1875 195.738281 Z M 244.832031 211.789062 L 237.1875 211.789062 L 237.1875 202.617188 L 244.832031 202.617188 C 247.367188 202.617188 249.414062 204.664062 249.414062 207.203125 C 249.414062 209.742188 247.367188 211.789062 244.832031 211.789062 Z M 244.832031 211.789062 " fill-opacity="1" fill-rule="nonzero"/><g clip-path="url(#e4a6f1d0cc)"><path fill="#f69ed6" d="M 173.054688 254.851562 L 158.628906 262.832031 C 158.089844 263.128906 157.757812 263.683594 157.757812 264.28125 L 157.757812 280.25 C 157.757812 280.847656 158.089844 281.394531 158.628906 281.695312 L 173.058594 289.683594 C 173.59375 289.980469 174.261719 289.980469 174.800781 289.683594 L 189.222656 281.695312 C 189.757812 281.394531 190.089844 280.847656 190.089844 280.25 L 190.089844 264.28125 C 190.089844 263.683594 189.757812 263.132812 189.21875 262.832031 L 174.796875 254.851562 C 174.527344 254.703125 174.222656 254.628906 173.925781 254.628906 C 173.621094 254.628906 173.320312 254.703125 173.050781 254.851562 M 247.265625 269.230469 L 244.859375 270.558594 C 244.769531 270.609375 244.714844 270.699219 244.714844 270.800781 L 244.714844 273.460938 C 244.714844 273.5625 244.773438 273.652344 244.859375 273.703125 L 247.265625 275.035156 C 247.355469 275.085938 247.464844 275.085938 247.554688 275.035156 L 249.960938 273.703125 C 250.046875 273.652344 250.105469 273.5625 250.105469 273.460938 L 250.105469 270.800781 C 250.105469 270.699219 250.046875 270.609375 249.957031 270.558594 L 247.550781 269.230469 C 247.507812 269.203125 247.457031 269.191406 247.410156 269.191406 C 247.359375 269.191406 247.308594 269.203125 247.265625 269.230469 " fill-opacity="1" fill-rule="nonzero"/></g><g clip-path="url(#0c7672be30)"><path fill="#ffffff" d="M 227.570312 237.929688 L 220.546875 234.011719 C 220.328125 233.886719 220.058594 233.890625 219.839844 234.019531 C 219.621094 234.148438 219.488281 234.378906 219.488281 234.632812 L 219.484375 258.300781 L 213.007812 254.71875 C 212.738281 254.566406 212.4375 254.496094 212.136719 254.496094 C 211.835938 254.496094 211.535156 254.566406 211.261719 254.71875 L 211.265625 254.71875 L 196.84375 262.699219 C 196.300781 262.996094 195.96875 263.546875 195.96875 264.140625 L 195.96875 280.109375 C 195.96875 280.707031 196.300781 281.257812 196.84375 281.558594 L 211.269531 289.542969 C 211.808594 289.839844 212.472656 289.839844 213.011719 289.542969 L 227.433594 281.558594 C 227.96875 281.261719 228.300781 280.707031 228.300781 280.109375 L 228.300781 239.175781 C 228.300781 238.65625 228.019531 238.179688 227.570312 237.929688 Z M 219.089844 276.417969 L 212.535156 280.046875 C 212.292969 280.183594 211.988281 280.183594 211.746094 280.046875 L 205.1875 276.417969 C 204.9375 276.28125 204.789062 276.027344 204.789062 275.757812 L 204.789062 268.496094 C 204.789062 268.226562 204.9375 267.976562 205.183594 267.839844 L 211.742188 264.210938 L 211.738281 264.210938 C 211.863281 264.144531 211.996094 264.113281 212.136719 264.113281 C 212.273438 264.113281 212.410156 264.148438 212.53125 264.210938 L 219.085938 267.839844 C 219.335938 267.976562 219.484375 268.230469 219.484375 268.5 L 219.484375 275.761719 C 219.484375 276.027344 219.335938 276.28125 219.089844 276.417969 Z M 219.089844 276.417969 " fill-opacity="1" fill-rule="nonzero"/></g><g clip-path="url(#b7982dba6e)"><path fill="#d80d68" d="M 173.054688 254.851562 L 157.757812 280.25 C 157.757812 280.847656 158.089844 281.394531 158.628906 281.695312 L 173.058594 289.683594 C 173.59375 289.980469 174.261719 289.980469 174.800781 289.683594 L 190.089844 264.28125 C 190.089844 263.683594 189.757812 263.132812 189.21875 262.832031 L 174.796875 254.851562 C 174.527344 254.703125 174.222656 254.628906 173.925781 254.628906 C 173.621094 254.628906 173.320312 254.703125 173.050781 254.851562 " fill-opacity="1" fill-rule="nonzero"/><path fill="#f75e8d" d="M 173.054688 254.851562 L 158.628906 262.832031 C 158.089844 263.128906 157.757812 263.683594 157.757812 264.28125 L 173.054688 289.683594 C 173.59375 289.980469 174.257812 289.980469 174.796875 289.683594 L 189.21875 281.695312 C 189.757812 281.394531 190.089844 280.847656 190.089844 280.25 L 174.796875 254.851562 C 174.527344 254.703125 174.222656 254.628906 173.925781 254.628906 C 173.621094 254.628906 173.320312 254.703125 173.050781 254.851562 " fill-opacity="1" fill-rule="nonzero"/></g><g clip-path="url(#8e5c87067a)"><path fill="#ffffff" d="M 262.703125 262.699219 L 248.28125 254.71875 C 248.011719 254.566406 247.707031 254.496094 247.410156 254.496094 C 247.109375 254.496094 246.804688 254.566406 246.535156 254.71875 L 246.539062 254.71875 L 232.113281 262.699219 C 231.578125 262.996094 231.242188 263.558594 231.242188 264.175781 L 231.242188 280.082031 C 231.242188 280.695312 231.578125 281.261719 232.113281 281.558594 L 246.542969 289.546875 C 247.082031 289.847656 247.742188 289.847656 248.285156 289.546875 L 254.9375 285.863281 C 255.542969 285.527344 255.542969 284.652344 254.929688 284.316406 L 240.457031 276.417969 C 240.214844 276.28125 240.058594 276.027344 240.058594 275.75 L 240.058594 268.5 C 240.058594 268.230469 240.207031 267.980469 240.441406 267.851562 L 247.011719 264.21875 L 247.007812 264.21875 C 247.132812 264.152344 247.265625 264.117188 247.40625 264.117188 C 247.542969 264.117188 247.679688 264.152344 247.800781 264.21875 L 254.371094 267.855469 C 254.605469 267.984375 254.753906 268.234375 254.753906 268.503906 L 254.753906 274.417969 C 254.753906 274.671875 254.890625 274.90625 255.109375 275.03125 C 255.332031 275.15625 255.601562 275.15625 255.820312 275.027344 L 262.871094 270.933594 C 263.304688 270.683594 263.574219 270.214844 263.574219 269.707031 L 263.574219 264.183594 C 263.574219 263.5625 263.238281 262.996094 262.703125 262.699219 Z M 153.945312 262.699219 L 139.523438 254.71875 C 139.253906 254.566406 138.953125 254.496094 138.652344 254.496094 C 138.351562 254.496094 138.050781 254.566406 137.777344 254.71875 L 137.78125 254.71875 L 123.359375 262.699219 C 122.820312 262.996094 122.484375 263.558594 122.484375 264.175781 L 122.484375 286.121094 C 122.484375 286.371094 122.621094 286.605469 122.839844 286.734375 C 123.0625 286.855469 123.332031 286.855469 123.550781 286.730469 L 130.601562 282.636719 C 131.035156 282.382812 131.304688 281.917969 131.304688 281.410156 L 131.304688 268.496094 C 131.304688 268.226562 131.449219 267.976562 131.683594 267.847656 L 138.253906 264.214844 C 138.378906 264.148438 138.511719 264.113281 138.652344 264.113281 C 138.789062 264.113281 138.925781 264.152344 139.046875 264.214844 L 145.617188 267.851562 C 145.851562 267.980469 146 268.230469 146 268.5 L 146 281.414062 C 146 281.917969 146.265625 282.386719 146.707031 282.640625 L 153.753906 286.734375 C 153.972656 286.859375 154.246094 286.859375 154.464844 286.738281 C 154.683594 286.605469 154.816406 286.371094 154.816406 286.121094 L 154.816406 264.179688 C 154.816406 263.5625 154.484375 262.996094 153.945312 262.699219 Z M 153.945312 262.699219 " fill-opacity="1" fill-rule="nonzero"/></g></svg>